<?xml version="1.0" encoding="UTF-8"?>
<svg id="Layer_2" data-name="Layer 2" xmlns="http://www.w3.org/2000/svg" version="1.1" viewBox="0 0 287.4 287.4">
  <defs>
    <style>
      .cls-1 {
        fill: #0f237a;
        stroke-width: 0px;
      }
    </style>
  </defs>
  <path class="cls-1" d="M224,242.2c-35.7,10.8-69.5,5.8-87.8,1-.5,7.4-1.3,10.5-2.5,11.7-1.4,1.6-13.1,8.2-19.6-1.2-2.8-4.5-4.2-12.6-5-20-41.4-18.6-60.6-46-61.2-47-1-1-10.4-10.7-1-22.7,8.8-10.8,37.9-21.7,63.9-26,1-22,3.4-39,6.6-46.5,3.7-9,8.5-1,12.7,5,3.4,4.5,5.6,23.8,5.8,39.2,17-.8,27.3.4,46.1,4,24.8,4.2,41.4,16.8,40.1,31-1.2,14-14.1,19.8-19.2,20.2-5.1.4-13.1-3.3-13.1-3.3-5.7-2.6-.5-5,6.1-7.8,7.3-3.5,5.7-7,5.7-7-2.6-8-34.8-13.3-66.8-13.3,0,17.5.7,46.5,1.2,63.4,22.4,4.2,39.2,3.3,39.2,3.3,0,0,81.8-2.3,84.1-54,2.6-51.8-81.8-101.3-143.9-117-62-16.1-97.1-4.7-100.1-3.2-3.3,1.6-.3,2.2-.3,2.2,0,0,3.3.5,9.4,2.5s1.2,5,1.2,5c-10.6,3.6-22.4,1.5-24.7-3.3-2.3-4.7,1.5-9,6.1-15.3,4.2-6.5,9.1-6.3,9.1-6.3,76.7-26.5,170.4,21,170.4,21,87.6,43.8,102.6,95.3,101,115.3-1.4,19.7-9.1,53-63.1,69.2M55.4,170.7c-8.7,4-2.6,10.4-2.6,10.4,16.4,17.3,36.4,28.2,55.5,35,2.2-30,2-40.7,2-55.8-29.7,2-46.8,6.8-54.9,10.4"/>
</svg>