<?xml version="1.0" encoding="UTF-8"?>
<svg id="Layer_2" data-name="Layer 2" xmlns="http://www.w3.org/2000/svg" viewBox="0 0 255.82 276.06">
  <defs>
    <style>
      .cls-1 {
        fill: #24292e;
      }

      .cls-1, .cls-2, .cls-3 {
        stroke-width: 0px;
      }

      .cls-2 {
        fill: #fff;
      }

      .cls-3 {
        fill: #fec130;
      }
    </style>
  </defs>
  <g id="Layer_1-2" data-name="Layer 1">
    <g>
      <g>
        <path class="cls-2" d="m223.27,82.72c15.75,8.91,26.71,23.43,30.84,40.9,4.06,17.12.79,35.26-8.95,49.77-6.36,9.48-12.5,14.16-23.31,20.44s-122.54,71.24-122.54,71.24c-12.52,7.4-24.43,10.99-36.4,10.99-4.2,0-8.46-.45-12.68-1.34C18.59,268.04-.19,246.54,0,207.7L.24,60.99c.16-16.51,7.03-31.98,19.34-43.55C31.36,6.35,47.24,0,63.15,0c5.74,0,11.46.8,16.99,2.39,8.86,2.55,16.3,6.96,23.5,11.23l119.63,69.1Z"/>
        <path class="cls-1" d="m218.88,187.49c2.36-5.55,5.62-9.27,7.63-13.72,9.58-21.17,1.38-47.63-18.82-59.34-37.05-21.49-74.16-42.89-111.24-64.33-6.44-3.72-12.83-7.53-19.34-11.13-19.31-10.71-41.99,2.46-42.05,24.56-.11,47.95-.03,95.9-.04,143.86,0,6.08-.2,6.24-6.11,4.9-12.6-2.85-21.72-13.8-21.76-26.78-.1-41.48-.35-82.96.07-124.44C7.59,25.18,43.77-.78,78.21,9.12c9.95,2.86,18.26,8.53,26.96,13.5,38.31,21.9,76.24,44.48,114.66,66.2,29.27,16.55,37.54,53.85,19.52,80.68-4.92,7.33-11.05,13.59-20.47,18Z"/>
        <path class="cls-3" d="m63.07,137.86c0-21.73-.01-43.45,0-65.18,0-6.54,2.16-8.02,7.68-4.88,18.57,10.54,37.05,21.24,55.56,31.88,18.21,10.47,36.45,20.9,54.58,31.49,2.99,1.75,7.65,2.56,7.7,6.88.05,4.37-4.62,5.17-7.61,6.9-34.05,19.79-68.16,39.48-102.27,59.17-2.58,1.49-5.23,2.84-7.86,4.24-5.59,2.98-7.78,1.65-7.79-4.84-.02-21.89,0-43.78,0-65.67Z"/>
        <path class="cls-1" d="m7.67,208.56c4.2,14.78,13.28,25.58,27.31,31.4,13.97,5.79,28.14,5.41,41.54-2.33,36.81-21.26,73.55-42.62,110.34-63.92,5.43-3.14,11.12-5.88,16.32-9.36,3.66-2.45,4.76-.94,5.79,2.28,4.52,14.1-.54,27.28-13.6,34.83-33.21,19.19-66.59,38.08-99.61,57.58-13.88,8.2-28.16,12.19-44.08,8.83-28.05-5.92-46.21-30.21-44-59.31Z"/>
      </g>
      <g>
        <path class="cls-2" d="m253.86,260.51l-22.97-33.76,20.14-32.22c2.18-3.49,2.43-7.3.68-10.45-1.71-3.08-4.93-4.85-8.84-4.85h-14.27c-4.85,0-9.27,2.62-12.12,7.19l-4.93,8.32v-4.27c0-6.83-4.32-11.25-11.01-11.25h-12.95c-5.18,0-8.94,2.6-10.43,6.88-1.47-4.28-5.19-6.88-10.31-6.88h-12.95c-2.52,0-4.7.61-6.45,1.73-1.42-.95-3.42-1.73-6.14-1.73h-12.95c-5.77,0-10.13,3.44-11.69,9.2l-12.21,42.5-.07.26c-.27,1.07-.59,2.75-.59,4.61v8.63c0,6.76,4.41,11.13,11.25,11.13h27.72v9.26c0,6.83,4.37,11.25,11.13,11.25h12.95c5.12,0,8.85-2.6,10.31-6.88,1.48,4.28,5.25,6.88,10.43,6.88h12.95c6.69,0,11.01-4.41,11.01-11.25v-4.76l5.77,9c1.28,1.92,4.67,7,11.4,7h17.03c3.93,0,7.29-1.88,8.98-5.04,1.72-3.21,1.41-7.12-.85-10.51Z"/>
        <path class="cls-1" d="m131.84,231.72h18.58v-41.25c0-2.52.96-3.6,3.48-3.6h12.95c2.52,0,3.36,1.08,3.36,3.6v74.34c0,2.52-.84,3.6-3.36,3.6h-12.95c-2.52,0-3.48-1.08-3.48-3.6v-16.91h-35.37c-2.52,0-3.6-.96-3.6-3.48v-8.63c0-1.2.24-2.28.36-2.76l12.23-42.56c.6-2.28,1.8-3.6,4.32-3.6h12.95c2.52,0,3.12,1.44,2.52,3.6l-11.99,41.25Z"/>
        <path class="cls-1" d="m247.54,264.81c1.2,1.8.72,3.6-1.8,3.6h-17.03c-2.52,0-3.84-1.8-5.04-3.6l-18.82-29.38h-.96v29.38c0,2.52-.84,3.6-3.36,3.6h-12.95c-2.52,0-3.48-1.08-3.48-3.6v-74.34c0-2.52.96-3.6,3.48-3.6h12.95c2.52,0,3.36,1.08,3.36,3.6v30.57h.96l18.11-30.57c1.2-1.92,3.12-3.6,5.64-3.6h14.27c2.52,0,2.88,1.68,1.68,3.6l-22.78,36.45,25.78,37.89Z"/>
      </g>
    </g>
  </g>
</svg>