<?xml version="1.0" encoding="UTF-8"?>
<svg id="Layer_2" data-name="Layer 2" xmlns="http://www.w3.org/2000/svg" viewBox="0 0 255.82 276.06">
  <defs>
    <style>
      .cls-1 {
        fill: #24292e;
      }

      .cls-1, .cls-2, .cls-3 {
        stroke-width: 0px;
      }

      .cls-2 {
        fill: #fff;
      }

      .cls-3 {
        fill: #fec130;
      }
    </style>
  </defs>
  <g id="Layer_1-2" data-name="Layer 1">
    <g>
      <path class="cls-2" d="m223.27,82.72c15.75,8.91,26.71,23.43,30.84,40.9,4.06,17.12.79,35.26-8.95,49.77-6.36,9.48-12.5,14.16-23.31,20.44s-122.54,71.24-122.54,71.24c-12.52,7.4-24.43,10.99-36.4,10.99-4.2,0-8.46-.45-12.68-1.34C18.59,268.04-.19,246.54,0,207.7L.24,60.99c.16-16.51,7.03-31.98,19.34-43.55C31.36,6.35,47.24,0,63.15,0c5.74,0,11.46.8,16.99,2.39,8.86,2.55,16.3,6.96,23.5,11.23l119.63,69.1Z"/>
      <path class="cls-1" d="m218.88,187.49c2.36-5.55,5.62-9.27,7.63-13.72,9.58-21.17,1.38-47.63-18.82-59.34-37.05-21.49-74.16-42.89-111.24-64.33-6.44-3.72-12.83-7.53-19.34-11.13-19.31-10.71-41.99,2.46-42.05,24.56-.11,47.95-.03,95.9-.04,143.86,0,6.08-.2,6.24-6.11,4.9-12.6-2.85-21.72-13.8-21.76-26.78-.1-41.48-.35-82.96.07-124.44C7.59,25.18,43.77-.78,78.21,9.12c9.95,2.86,18.26,8.53,26.96,13.5,38.31,21.9,76.24,44.48,114.66,66.2,29.27,16.55,37.54,53.85,19.52,80.68-4.92,7.33-11.05,13.59-20.47,18Z"/>
      <path class="cls-3" d="m63.07,137.86c0-21.73-.01-43.45,0-65.18,0-6.54,2.16-8.02,7.68-4.88,18.57,10.54,37.05,21.24,55.56,31.88,18.21,10.47,36.45,20.9,54.58,31.49,2.99,1.75,7.65,2.56,7.7,6.88.05,4.37-4.62,5.17-7.61,6.9-34.05,19.79-68.16,39.48-102.27,59.17-2.58,1.49-5.23,2.84-7.86,4.24-5.59,2.98-7.78,1.65-7.79-4.84-.02-21.89,0-43.78,0-65.67Z"/>
      <path class="cls-1" d="m7.67,208.56c4.2,14.78,13.28,25.58,27.31,31.4,13.97,5.79,28.14,5.41,41.54-2.33,36.81-21.26,73.55-42.62,110.34-63.92,5.43-3.14,11.12-5.88,16.32-9.36,3.66-2.45,4.76-.94,5.79,2.28,4.52,14.1-.54,27.28-13.6,34.83-33.21,19.19-66.59,38.08-99.61,57.58-13.88,8.2-28.16,12.19-44.08,8.83-28.05-5.92-46.21-30.21-44-59.31Z"/>
    </g>
  </g>
</svg>