<?xml version="1.0" encoding="UTF-8"?>
<svg id="Layer_1" xmlns="http://www.w3.org/2000/svg" version="1.1" viewBox="0 0 511.94 450.99">
  <!-- Generator: Adobe Illustrator 29.4.0, SVG Export Plug-In . SVG Version: 2.1.0 Build 152)  -->
  <defs>
    <style>
      .st0 {
        fill: #fff;
      }

      .st1 {
        fill: none;
      }
    </style>
  </defs>
  <g>
    <path d="M-258.83,451.95c-8.8,15.11-24.35,24.09-41.67,24.09h-452.37c-.75.04-1.5.05-2.25.05-17.14,0-32.91-8.74-41.7-23.29-8.5-13.67-9.61-31.11-2.89-45.58l.37-.8.45-.77L-570.84,10.5c8.24-15.16,23.49-24.63,40.85-25.36,17.44-.71,33.48,7.55,42.91,22.14l.53.86,227.9,394.8c8.72,15.07,8.66,33.85-.18,49.01Z"/>
    <path class="st0" d="M-276.01,412.94c-8.9-15.4-23.6-41-38.2-66.2-4.4-7.7-8.8-15.3-13-22.6-8.7-15-16.6-28.7-22.2-38.5-39.1-67.6-116.1-201.4-154.5-267.5-11.9-18.4-39.3-17-49.5,2.1-11.7,20.1-24.4,42.1-37.9,65.4-4.3,7.4-8.6,14.9-13,22.5-56,97-121.6,210.6-168.3,291.5-2.4,4.3-6.8,11.4-9,16-3.9,8.4-3.1,18.9,1.8,26.7,5.5,9.2,15.9,14.3,26.4,13.7h100.7c121.2,0,306.4.1,351.9,0,22,.2,35.8-24.1,24.8-43.1M-537.01,327.04l-22.3-38.7c-3.9-6.8,1-15.3,8.8-15.3h44.6c7.9,0,12.8,8.5,8.8,15.3l-22.3,38.7c-3.8,6.8-13.6,6.8-17.6,0M-574.41,255.04c-1.8-4.7-3.4-9.5-4.8-14.4l73.8,14.4h-69ZM-540.61,356.74c-3.1,4-6.5,7.7-10,11.3l-24.5-71.1,34.5,59.8ZM-469.41,276.74c5,.7,9.9,1.8,14.8,3.1l-49.3,56.8,34.5-59.9ZM-583.71,216.44c-.8-7.2-1.1-14.4-1.1-21.7l97.5,47.6-96.4-25.9ZM-595.21,287.74l25.8,96.4c-5.8,4.3-11.9,8.2-18.3,11.8l-7.5-108.2ZM-431.31,287.94c6.6,2.9,13.1,6.2,19.4,9.9l-89.9,60.7,70.5-70.6ZM-582.51,164.04c1.8-13.2,4.5-26.2,7.9-38.7l148.1,128.8-156-90.1ZM-615.31,409.34c-12.3,5.1-25,9.2-37.4,12.5l37.4-192.6v180.1ZM-386.51,315.14c10.5,8.2,20.4,17.1,29.6,26.2l-185.6,63.9,156-90.1ZM-521.71,52.94c27.3,47.4,67,116.1,104.7,181.5l-141-141c8.3-14.3,16.1-28,23.4-40.5,2.9-4.9,10.1-4.9,12.9,0M-741.91,412.14c7.8-13.4,18.4-31.8,20.8-36,22.5-38.9,52.8-91.4,84-145.5l-51.6,192.7h-46.7c-5.8,0-9.4-6.2-6.5-11.2M-320.81,423.34h-209.7l192.8-51.7c10.1,17.5,18.2,31.5,23.4,40.5,2.9,5-.7,11.2-6.5,11.2"/>
  </g>
  <rect class="st1" x="-814.36" y="-55.64" width="572.48" height="572.48"/>
</svg>