<?xml version="1.0" encoding="UTF-8"?>
<svg id="Layer_2" xmlns="http://www.w3.org/2000/svg" version="1.1" viewBox="0 0 767.13 767.13">
  <!-- Generator: Adobe Illustrator 29.4.0, SVG Export Plug-In . SVG Version: 2.1.0 Build 152)  -->
  <defs>
    <style>
      .st0 {
        fill: #fff;
      }
    </style>
  </defs>
  <rect class="st0" x="1288" y="-7" width="767.13" height="767.13" rx="52.63" ry="52.63"/>
  <g id="Layer_1-2">
    <path d="M1985.87,21.74h-628.62c-23.27,0-42.13,18.86-42.13,42.13v625.4c0,23.27,18.86,42.13,42.13,42.13h628.62c23.27,0,42.13-18.86,42.13-42.13V63.86c0-23.27-18.86-42.13-42.13-42.13h0ZM1626.63,627.16c0,6.06-4.94,11-11,11h-193.79c-6.06,0-11-4.94-11-11V123.65c0-6.06,4.94-11,11-11h190.73c6.06,0,11,4.94,11,11v191.63s-1.05,82.46,3.07,147.19v164.69h-.01ZM1929.23,627.16c0,8.76-9.72,13.99-16.99,9.21l-88.37-57.77c-3.82-2.54-8.76-2.4-12.5.3l-77.44,55.97c-3.22,2.4-7.04,2.54-10.25,1.35-2.84-2.02-4.71-5.31-4.71-9.05V236.21c10.47-2.02,22.15-3.14,35.62-3.14,66.14,0,174.65,37.41,174.65,142.92v251.19h0Z"/>
  </g>
</svg>