<?xml version="1.0" encoding="UTF-8"?>
<svg id="Layer_2" data-name="Layer 2" xmlns="http://www.w3.org/2000/svg" viewBox="0 0 767.13 767.13">
  <defs>
    <style>
      .cls-1 {
        fill: #508ac5;
      }

      .cls-1, .cls-2 {
        stroke: #4076bc;
        stroke-miterlimit: 10;
        stroke-width: 16.24px;
      }

      .cls-3 {
        fill: #e1f3fd;
      }

      .cls-2 {
        fill: none;
      }
    </style>
  </defs>
  <g id="Layer_1-2" data-name="Layer 1">
    <g>
      <g id="e0fi2jgm3hnzn2">
        <path id="e0fi2jgm3hnzn3" class="cls-3" d="M767.12,383.64v288.76c0,44.12-33.28,84.44-76.72,92.72-6.44,1.24-13.08,1.92-19.6,1.92-191.88.12-383.72.08-575.6.08-47.04,0-88.08-36.08-94.24-82.88-.56-4.12-.92-8.32-.92-12.48-.04-192.36-.04-384.72-.04-577.04C0,50.6,33.28,10.24,76.72,2c6.44-1.24,13.08-1.92,19.6-1.92,192.04-.08,384.08-.08,576.08-.08,44.12,0,84.52,33.32,92.72,76.72,1.2,6.44,1.92,13.08,1.92,19.6.12,95.76.08,191.56.08,287.32Z"/>
      </g>
      <g>
        <path class="cls-1" d="M317.26,178.88c-71.64,0-129.63,58.32-129.63,129.96,0,19.87,6.5,46.62,17.87,65.79h0l111.93,222.23,115.34-228.73.97-1.95c8.61-17.38,13.32-36.88,13.32-57.51,0-71.64-58.16-129.8-129.8-129.8h0ZM317.42,352.38c-23.88,0-43.37-19.49-43.37-43.37s19.49-43.37,43.37-43.37,43.37,19.49,43.37,43.37-19.49,43.37-43.37,43.37Z"/>
        <circle class="cls-2" cx="320.67" cy="661.51" r="28.92"/>
        <circle class="cls-2" cx="561.25" cy="475.35" r="28.92"/>
        <circle class="cls-2" cx="550.86" cy="249.55" r="28.92"/>
        <circle class="cls-2" cx="320.67" cy="91.81" r="28.92"/>
        <line class="cls-2" x1="344.71" y1="107.89" x2="528.44" y2="231.35"/>
        <line class="cls-2" x1="559.95" y1="446.43" x2="553.13" y2="278.3"/>
        <line class="cls-2" x1="343.57" y1="643.81" x2="538.51" y2="492.89"/>
      </g>
    </g>
  </g>
</svg>