<?xml version="1.0" encoding="UTF-8"?>
<svg id="Layer_2" data-name="Layer 2" xmlns="http://www.w3.org/2000/svg" viewBox="0 0 767.13 767.13">
  <defs>
    <style>
      .cls-1 {
        fill: #e1f3fd;
      }
    </style>
  </defs>
  <g id="Layer_1-2" data-name="Layer 1">
    <g>
      <g id="e0fi2jgm3hnzn2">
        <path id="e0fi2jgm3hnzn3" class="cls-1" d="M767.12,383.64v288.76c0,44.12-33.28,84.44-76.72,92.72-6.44,1.24-13.08,1.92-19.6,1.92-191.88.12-383.72.08-575.6.08-47.04,0-88.08-36.08-94.24-82.88-.56-4.12-.92-8.32-.92-12.48-.04-192.36-.04-384.72-.04-577.04C0,50.6,33.28,10.24,76.72,2c6.44-1.24,13.08-1.92,19.6-1.92,192.04-.08,384.08-.08,576.08-.08,44.12,0,84.52,33.32,92.72,76.72,1.2,6.44,1.92,13.08,1.92,19.6.12,95.76.08,191.56.08,287.32Z"/>
      </g>
      <path d="M644.41,89.09H122.72c-19.31,0-34.96,15.65-34.96,34.96v519.02c0,19.31,15.65,34.96,34.96,34.96h521.69c19.31,0,34.96-15.65,34.96-34.96V124.05c0-19.31-15.65-34.96-34.96-34.96ZM346.27,591.53c0,5.03-4.1,9.13-9.13,9.13h-160.83c-5.03,0-9.13-4.1-9.13-9.13V173.67c0-5.03,4.1-9.13,9.13-9.13h158.29c5.03,0,9.13,4.1,9.13,9.13v159.03s-.87,68.43,2.55,122.15v136.68ZM597.4,591.53c0,7.27-8.07,11.61-14.1,7.64l-73.34-47.94c-3.17-2.11-7.27-1.99-10.37.25l-64.27,46.45c-2.67,1.99-5.84,2.11-8.51,1.12-2.36-1.68-3.91-4.41-3.91-7.51v-324.46c8.69-1.68,18.38-2.61,29.56-2.61,54.89,0,144.94,31.05,144.94,118.61v208.46Z"/>
    </g>
  </g>
</svg>