<?xml version="1.0" encoding="UTF-8"?>
<svg xmlns="http://www.w3.org/2000/svg" version="1.1" xmlns:xlink="http://www.w3.org/1999/xlink" viewBox="0 0 769 769">
  <!-- Generator: Adobe Illustrator 29.2.1, SVG Export Plug-In . SVG Version: 2.1.0 Build 116)  -->
  <defs>
    <style>
      .st0 {
        fill: #18c249;
      }

      .st1 {
        fill: #fa2921;
      }

      .st2 {
        fill: #1e83f7;
      }

      .st3 {
        fill: #e1f3fd;
      }

      .st4 {
        fill: #ed79b5;
      }

      .st5 {
        fill: #ffb400;
      }
    </style>
  </defs>
  <g id="ey3w0brz1361" shape-rendering="geometricPrecision" text-rendering="geometricPrecision">
    <g id="ey3w0brz1362">
      <path id="ey3w0brz1363" class="st3" d="M767.1,385.5v288.8c0,44.1-33.3,84.4-76.7,92.7-6.4,1.2-13.1,1.9-19.6,1.9-191.9.1-383.7,0-575.6,0S7.1,732.9,1,686.1c-.6-4.1-.9-8.3-.9-12.5,0-192.4,0-384.7,0-577S33.3,12.1,76.7,3.9c6.4-1.2,13.1-1.9,19.6-1.9,192,0,384.1,0,576.1,0s84.5,33.3,92.7,76.7c1.2,6.4,1.9,13.1,1.9,19.6.1,95.8,0,191.6,0,287.3Z"/>
    </g>
    <g>
      <path class="st1" d="M360.6,251.4c44.7,39.6,80.7,82,103.9,121.9,39.8-71.2,66.4-155.8,66.7-209.7v-1.1c0-79.7-79.5-110.7-148-110.7s-148,31-148,110.7v4.3c38.2,17,83.4,47.3,125.5,84.5Z"/>
      <path class="st4" d="M116.8,468.8c27.9-31.1,70.8-64.7,119.1-93.2,51.4-30.3,102.9-51.4,148-61.1-55.4-59.9-127.6-111.3-178.8-128.3-.4-.1-.7-.2-1-.3-75.8-24.6-129.9,41.4-151.1,106.6-21.2,65.2-16.2,150.4,59.6,175,1,.3,2.4.8,4.1,1.3Z"/>
      <path class="st5" d="M714,291.4c-21.2-65.2-75.2-131.2-151.1-106.6-1,.3-2.4.8-4.1,1.3-4.3,41.5-19.2,94-41.6,145.4-23.8,54.7-53,102.1-83.9,136.5,80,15.9,168.7,15,220-1.3.4-.1.7-.2,1-.3,75.8-24.6,80.8-109.9,59.6-175Z"/>
      <path class="st2" d="M315.6,532.5c-12.9-58.3-17.1-113.7-12.4-159.7-74,34.2-145.3,87-177.2,130.4-.2.3-.4.6-.6.8-46.9,64.5-.8,136.4,54.7,176.6,55.4,40.3,138,61.9,184.9-2.6.6-.9,1.5-2.1,2.5-3.5-20.9-36.2-39.7-87.3-51.8-142.1Z"/>
      <path class="st0" d="M640.5,499.9c-40.9,8.7-95.3,10.8-151.2,5.4-59.4-5.7-113.5-18.9-155.7-37.6,9.6,81,37.8,165.1,69.2,208.8.2.3.4.6.6.8,46.9,64.5,129.4,42.9,184.9,2.6,55.4-40.3,101.5-112.1,54.7-176.6-.6-.9-1.5-2.1-2.5-3.5Z"/>
    </g>
  </g>
</svg>