<?xml version="1.0" encoding="UTF-8"?>
<svg id="Layer_2" data-name="Layer 2" xmlns="http://www.w3.org/2000/svg" viewBox="0 0 767.13 767.13">
  <defs>
    <style>
      .cls-1 {
        fill: #18c249;
      }

      .cls-2 {
        fill: #fa2921;
      }

      .cls-3 {
        fill: #1e83f7;
      }

      .cls-4 {
        fill: #e1f3fd;
      }

      .cls-5 {
        fill: #ed79b5;
      }

      .cls-6 {
        fill: #ffb400;
      }
    </style>
  </defs>
  <g id="ey3w0brz1361" shape-rendering="geometricPrecision" text-rendering="geometricPrecision">
    <g>
      <g id="ey3w0brz1362">
        <path id="ey3w0brz1363" class="cls-4" d="M767.12,383.64v288.76c0,44.12-33.28,84.44-76.72,92.72-6.44,1.24-13.08,1.92-19.6,1.92-191.88.12-383.72.08-575.6.08-47.04,0-88.08-36.08-94.24-82.88-.56-4.12-.92-8.32-.92-12.48-.04-192.36-.04-384.72-.04-577.04C0,50.6,33.28,10.24,76.72,2c6.44-1.24,13.08-1.92,19.6-1.92,192.04-.08,384.08-.08,576.08-.08,44.12,0,84.52,33.32,92.72,76.72,1.2,6.44,1.92,13.08,1.92,19.6.12,95.8.08,191.56.08,287.32Z"/>
      </g>
      <g>
        <path class="cls-2" d="M360.59,249.55c44.68,39.56,80.69,81.95,103.87,121.91,39.8-71.19,66.4-155.78,66.74-209.65v-1.05c0-79.72-79.53-110.75-148.03-110.75s-148.03,31.03-148.03,110.75v4.3c38.18,16.98,83.45,47.31,125.46,84.5Z"/>
        <path class="cls-5" d="M116.84,466.95c27.93-31.07,70.77-64.75,119.12-93.22,51.44-30.27,102.88-51.42,148.04-61.1-55.4-59.86-127.63-111.29-178.78-128.26-.36-.12-.69-.22-.99-.32-75.82-24.63-129.91,41.41-151.07,106.56-21.16,65.15-16.24,150.38,59.59,175.01,1.03.34,2.42.79,4.09,1.33Z"/>
        <path class="cls-6" d="M713.97,289.51c-21.16-65.15-75.25-131.19-151.07-106.56-1.04.34-2.43.79-4.09,1.33-4.34,41.55-19.2,93.98-41.58,145.43-23.81,54.72-53.01,102.08-83.85,136.45,80,15.87,168.67,15.01,220.02-1.32.36-.12.69-.23.99-.32,75.82-24.64,80.75-109.87,59.59-175.01Z"/>
        <path class="cls-3" d="M315.56,530.64c-12.89-58.27-17.11-113.74-12.37-159.68-74.04,34.19-145.28,87-177.23,130.4-.22.3-.43.59-.61.84-46.86,64.5-.76,136.35,54.66,176.6,55.41,40.27,137.99,61.91,184.86-2.59.65-.88,1.5-2.06,2.53-3.48-20.92-36.16-39.72-87.32-51.84-142.1Z"/>
        <path class="cls-1" d="M640.54,498.05c-40.86,8.72-95.31,10.79-151.16,5.39-59.4-5.74-113.45-18.87-155.69-37.58,9.63,80.98,37.85,165.05,69.25,208.85.22.3.43.59.61.84,46.86,64.5,129.44,42.86,184.86,2.59,55.41-40.27,101.52-112.11,54.66-176.6-.65-.88-1.5-2.06-2.53-3.48Z"/>
      </g>
    </g>
  </g>
</svg>