<?xml version="1.0" encoding="UTF-8"?>
<svg id="Layer_2" data-name="Layer 2" xmlns="http://www.w3.org/2000/svg" version="1.1" viewBox="0 0 287.4 287.4">
  <defs>
    <style>
      .cls-1 {
        fill: #d1effa;
      }

      .cls-1, .cls-2, .cls-3 {
        stroke-width: 0px;
      }

      .cls-2 {
        fill: #00aae4;
      }

      .cls-3 {
        fill: #fff;
      }
    </style>
  </defs>
  <path class="cls-1" d="M142.4,187.9h0c.1-.3.4-.4.6-.4,1,0,2,0,3.1,0,.2,0,.5,0,.6.3h0c0,.1-4.3.1-4.3.1Z"/>
  <path class="cls-2" d="M146.7,187.7c-1.4,0-2.9,0-4.3,0-2-.1-3.9-.2-5.9-.3-5.2-.4-10.4-1.2-15.5-2.4-17.6-4.1-33.1-12.3-46.6-24.3-1.3-1.1-2.4-2.3-3.7-3.4-.3-.3-.5-.6-.7-1-.2-.5-.1-1,.3-1.4s.9-.5,1.4-.3c.3.1.6.3.9.5,12.9,8,27,13.8,41.7,17.2,5,1.1,9.9,2,15,2.7,7.2.9,14.5,1.2,21.8,1,3.9-.1,7.8-.5,11.7-1,9-1.1,18-3.2,26.6-6.1,4.6-1.5,9-3.2,13.4-5.2.6-.4,1.4-.5,2.2-.3,1.2.3,1.9,1.5,1.6,2.7,0,.1-.1.3-.2.5-.3.5-.7,1-1.2,1.4-4.1,3.2-8.6,6.1-13.3,8.4-8.9,4.5-18.3,7.7-28.1,9.5-5.6,1-11.3,1.6-17,1.8Z"/>
  <path class="cls-2" d="M93.5,115c.9-.5,1.8-1.1,2.8-1.6,2.5-1.3,5.3-1.9,8.2-1.8,2,.1,3.9.7,5.4,2.2,1.4,1.4,1.9,3.1,2,5,0,.4,0,.8,0,1.2v18.6c0,1.6-.2,1.8-1.8,1.8h-4.4c-.3,0-.6,0-.9,0-.4,0-.8-.4-.9-.8,0-.4,0-.8,0-1.2v-16.6c0-.7,0-1.3-.2-2-.3-1.1-1.3-1.9-2.4-2-2.1-.1-4.2.3-6.2,1.2-.3,0-.5.4-.4.6v18.9c0,.4,0,.7,0,1,0,.5-.4.9-.9.9h0c-.5,0-1.1,0-1.7,0h-3.8c-1.3,0-1.6-.3-1.6-1.7v-17c0-.6,0-1.3-.2-1.9-.3-1.2-1.3-2.1-2.5-2.2-2.2-.1-4.3.3-6.3,1.2-.3,0-.5.4-.4.7v19.1c0,1.3-.3,1.6-1.6,1.6h-4.8c-1.3,0-1.6-.4-1.6-1.6v-24.9c0-.3,0-.6.1-.9.1-.4.6-.7,1-.7h4.5c.6,0,1,.4,1.3,1,.2.5.3,1,.5,1.5.4,0,.6-.3.8-.4,2-1.2,4.1-2.3,6.4-2.7,1.8-.4,3.6-.4,5.4,0,1.7.4,3.2,1.4,4.2,2.8,0,.1.1.2.2.3,0,0,0,0,0,.1Z"/>
  <path class="cls-3" d="M167.9,132.8c.2-.7.4-1.4.6-2.1,1.7-5.6,3.3-11.1,5-16.7l.2-.6c.2-.6.8-1,1.4-1h5.5c1.4,0,1.7.4,1.2,1.7l-2.2,5.7c-2.4,6.2-4.8,12.5-7.2,18.8,0,.2-.2.4-.3.6-.3.8-1,1.3-1.8,1.2-1.6,0-3.2,0-4.7,0-1.1,0-1.8-.5-2.2-1.5-.9-2.4-1.8-4.8-2.7-7.1-2.2-5.6-4.3-11.3-6.5-16.9-.2-.4-.4-.9-.5-1.4-.1-.7.1-1.1.9-1.1,2,0,4.1,0,6.1,0s1.3.6,1.5,1.3c.4,1.4.8,2.8,1.2,4.1,1.5,5,2.9,10,4.4,15,0,0,0,0,0,0Z"/>
  <path class="cls-2" d="M40.4,116.3c.3,0,.5-.2.6-.4.6-.6,1.3-1.3,2-1.8,1.9-1.4,4.2-2.2,6.5-2,.9,0,1.3.3,1.3,1.2,0,1.2,0,2.5,0,3.7,0,.5,0,1,0,1.5-.1.6-.4.9-1,1-.5,0-1,0-1.5,0-2.4-.2-4.7.3-7,1-.5.2-.5.5-.5.9v17.2c0,.3,0,.6,0,.9,0,.5-.4.8-.9.8-.3,0-.5,0-.8,0h-4.7c-.3,0-.5,0-.8,0-.5,0-.8-.4-.9-.9,0-.3,0-.6,0-.9v-24.4c0-1.7.2-1.8,1.8-1.8h3.4c.9,0,1.4.3,1.6,1.2s.5,1.8.7,2.8Z"/>
  <path class="cls-2" d="M208.4,152.7c2.4,0,4.7.2,7,.8.6.2,1.3.4,1.9.7.8.3,1.4,1.1,1.5,2,.1,1,.2,2,.1,3.1-.5,6.1-2.4,12.1-5.5,17.3-1.1,1.9-2.5,3.6-4.2,5.1-.3.3-.7.6-1.1.7-.7.2-1.1-.2-1.1-.9,0-.4.1-.7.3-1.1,1.3-3.4,2.5-6.7,3.4-10.2.6-1.9,1-3.8,1.2-5.8,0-.7.1-1.4,0-2.2,0-1.2-.8-2.3-2-2.6-1.1-.4-2.3-.6-3.4-.6-3.3-.1-6.6,0-9.9.4l-4.3.5c-.5,0-.9,0-1.1-.4s-.1-.9.1-1.3c.3-.4.6-.8,1.1-1,2.7-1.9,5.6-3.1,8.8-3.8,2.4-.5,4.9-.8,7.4-.8Z"/>
  <path class="cls-3" d="M193.4,126.4v12.9c0,.7-.4,1-1.1,1.1-1.9,0-3.8,0-5.8,0-.7,0-1-.4-1.1-1,0-.2,0-.5,0-.7v-24.8c0-1.1.3-1.4,1.4-1.4h5.2c1.1,0,1.4.3,1.4,1.4v12.6h0Z"/>
  <path class="cls-2" d="M54.4,126.3v-12.7c0-.9.4-1.2,1.2-1.2,1.9,0,3.7,0,5.6,0,.8,0,1.1.3,1.1,1.1,0,.3,0,.6,0,.9v23.9c0,.4,0,.8,0,1.2,0,.5-.4.8-.9.8-.2,0-.4,0-.6,0h-5c-.2,0-.3,0-.5,0-.5,0-.9-.4-1-.9,0-.3,0-.6,0-.9,0-4,0-8.1,0-12.2Z"/>
  <path class="cls-2" d="M58.6,99.5c.6,0,1.1,0,1.7.3,1.9.6,2.9,2.3,2.8,4.5-.1,1.9-1.5,3.4-3.4,3.7-.8.1-1.6.1-2.4,0-2-.4-3.6-1.9-3.4-4.5.2-2.5,1.9-3.9,4.8-3.9Z"/>
  <path class="cls-3" d="M189.4,99.5c.7,0,1.4,0,2.1.4,1.4.5,2.4,1.8,2.4,3.3.3,3.3-1.9,4.9-4.8,4.8-.4,0-.8,0-1.2-.1-2.2-.5-3.4-2.3-3.2-4.7.2-2,1.7-3.4,3.8-3.6.3,0,.5,0,.8,0Z"/>
  <path class="cls-2" d="M27.5,123.4c-.1-1.9-.6-3.7-1.4-5.4-1.5-3.1-3.7-5.4-7.2-6.1-3.9-.9-7.5,0-10.7,2.4-.2.2-.5.4-.8.5,0,0-.1,0-.1-.1-.1-.4-.2-.7-.3-1.1-.3-.9-.6-1.2-1.6-1.2s-2.2,0-3.3,0c-.8,0-1.6,0-2.2.7,0,12.6,0,25.2,0,37.7.5.8,1.2.9,2,.9,1.3,0,2.6,0,3.9,0q2.3,0,2.3-2.2v-10.2c0-.3-.1-.5.1-.8,1.8,1.4,4,2.3,6.2,2.5,3.2.3,6-.5,8.4-2.6,1.8-1.6,3.1-3.7,3.7-6,1-2.9,1-5.9.8-8.9ZM19,130.8c-.3,1.1-.8,2.1-1.7,2.9-.9.8-2.1,1.3-3.3,1.3-1.8.1-3.6-.3-5.2-1.1-.4-.2-.6-.6-.6-1v-6.5c0-2.2,0-4.3,0-6.5,0-.5.3-.9.7-1.1,2-.9,4-1.4,6.2-.9,1.5.2,2.8,1.2,3.4,2.6.5,1.1.9,2.4.9,3.7.2,2.3.2,4.6-.4,6.8Z"/>
  <path class="cls-3" d="M287.3,129s0,0,0,0t0,0Z"/>
  <path class="cls-3" d="M287.3,124.2h0c-.1,0-.2-.2-.1-.4v-.3s0,0,0,0h0v-.4h0s0,0,0,0c0-.7-.2-1.4-.4-2-1.3-4.7-4.3-7.9-9.2-9.1-2.3-.5-4.6-.6-6.9-.3-4.8.7-8.3,3.3-10,7.9-1.7,4.4-1.6,9.2,0,13.6,1.4,4,4.3,6.5,8.4,7.5,2.2.5,4.5.7,6.8.4,7.5-.9,10.7-6.6,11.2-11.6h0v-.5c0-.2,0-.4.1-.5h0s0,0,0,0v-4.1s0,0,0,0ZM278.7,131c-.2.8-.5,1.4-1,2.1-.8,1.1-2,1.8-3.4,1.9-.7,0-1.4,0-2,0-1.5-.3-2.8-1.3-3.4-2.7-.5-1.1-.9-2.3-1-3.6-.2-2.1-.2-4.2.3-6.3.2-.8.5-1.7,1-2.4.8-1.3,2.2-2.1,3.7-2.2.7,0,1.4,0,2,0,1.4.3,2.6,1.2,3.3,2.5.6,1.3,1,2.7,1,4.1,0,.6,0,1.3,0,1.9.1,1.6,0,3.1-.5,4.6Z"/>
  <path class="cls-3" d="M224.4,99.7h-5c-1.4,0-1.6.3-1.6,1.6v11.6c0,.3.1.5,0,.8-.3,0-.5-.3-.8-.4-3.7-2.2-7.6-2.6-11.6-.8-2.8,1.3-4.5,3.6-5.6,6.4-1.1,2.7-1.3,5.5-1.3,8.3,0,2.7.6,5.3,1.8,7.6,1.4,2.6,3.3,4.6,6.2,5.5,3.9,1.2,7.6.6,10.9-1.9.3-.1.4-.4.7-.5.2.4.3.8.4,1.3.1.6.6,1,1.3,1h.9c1.3,0,2.5,0,3.8,0,1,0,1.3-.3,1.3-1.4v-37.8c0-1.1-.3-1.4-1.4-1.4ZM217.8,126.2v6.5c0,.4-.2.8-.6,1-1.7,1-3.7,1.4-5.6,1.1-1.7-.2-3.1-1.2-3.8-2.7-.6-1.1-.9-2.4-1-3.6-.3-2.3-.1-4.6.4-6.8.2-.6.4-1.2.7-1.8.8-1.4,2.2-2.3,3.8-2.4,1.9-.2,3.8.2,5.5,1,.4.1.7.6.6,1,0,2.2,0,4.4,0,6.6h0Z"/>
  <path class="cls-2" d="M125,128.6c2.7.5,5.5.5,8.2.1,1.6-.2,3.1-.7,4.5-1.4,1.6-.9,2.8-2.2,3.3-4,1.3-4.5-.7-9.1-5.4-10.8-2.3-.8-4.7-1-7.1-.7-5.7.6-9.4,3.8-11.1,9.2-1.2,3.7-1,7.5,0,11.2,1.3,4.8,4.4,7.6,9.2,8.6,2.7.6,5.5.5,8.2,0,1.4-.3,2.9-.6,4.2-1.1.8-.3,1.3-.8,1.2-1.8,0-.9,0-1.8,0-2.7s-.4-1.4-1.5-1.1-2,.5-3.1.7c-2.2.5-4.5.5-6.8,0-3.1-.6-5-3.2-4.8-6.5.3,0,.7,0,1,.1ZM124.1,123.1c.1-.9.4-1.7.7-2.5,1.1-2.6,3.3-3.5,5.6-3.4.6,0,1.3.2,1.9.4.9.4,1.5,1.3,1.7,2.3.1.6,0,1.3-.1,1.9-.4,1.3-1.5,1.8-2.7,2.1-.8.2-1.5.3-2.3.2-1.4,0-2.8-.1-4.2-.3q-.5,0-.5-.6Z"/>
  <path class="cls-3" d="M246.1,129c2.1-.1,4.2-.5,6-1.5,1.9-.9,3.2-2.7,3.6-4.8.3-1.3.3-2.7,0-3.9-.8-3.2-2.8-5.2-5.9-6.3-1.7-.5-3.6-.8-5.4-.7-6,.1-10.6,3.2-12.5,9.2-1.3,4-1.1,8,.1,12,1.3,4.1,4.1,6.6,8.2,7.7,1.8.4,3.6.6,5.4.5,2.6,0,5.2-.5,7.7-1.5,1-.4,1.3-.8,1.3-1.9v-2.6c0-1-.5-1.4-1.5-1.1-.8.2-1.5.4-2.3.6-2.4.6-4.9.7-7.4.3-2.4-.5-4.1-1.9-4.7-4.3-.2-.7-.3-1.4-.4-2.2.2,0,.4,0,.5,0,2.4.4,4.8.6,7.2.4ZM238.6,123.3c.3-1.4.6-2.8,1.4-3.9,1.3-1.8,3.2-2.3,5.2-2,.2,0,.3,0,.5,0,2.5.4,3.1,2.4,2.7,4.3-.4,1.4-1.5,2-2.9,2.2-.7.1-1.5.2-2.2.2-1.5,0-2.9-.1-4.3-.4-.3,0-.5-.2-.4-.5h0Z"/>
</svg>