<?xml version="1.0" encoding="UTF-8"?>
<svg id="Layer_2" data-name="Layer 2" xmlns="http://www.w3.org/2000/svg" viewBox="0 0 928.82 928.78">
  <defs>
    <style>
      .cls-1 {
        fill: #44bba5;
      }

      .cls-1, .cls-2, .cls-3, .cls-4 {
        stroke-width: 0px;
      }

      .cls-2 {
        fill: #97ffff;
      }

      .cls-3 {
        fill: #fff;
      }

      .cls-4 {
        fill: #137664;
      }
    </style>
  </defs>
  <g id="Layer_1-2" data-name="Layer 1">
    <g>
      <path class="cls-1" d="M464.41,0C207.94,0,0,207.9,0,464.41s207.94,464.37,464.41,464.37,464.41-207.9,464.41-464.37S720.92,0,464.41,0ZM682.17,226.21l-234.14,524.18c-20.02,44.92-72.69,65.06-117.57,45-23.93-10.68-40.87-30.71-48.35-53.82-3.72-8.86-5.69-18.42-5.69-28.14s2.01-19.84,6.29-29.4l2.49-5.58,234.4-524.85,2.61-5.84c7.96-17.86,22.26-30.89,39.08-37.59.11-.07.19-.11.3-.15,22.93-11.24,50.47-12.62,75.59-1.41,33.09,14.78,52.74,47.3,52.74,81.4,0,12.1-2.49,24.42-7.74,36.21Z"/>
      <path class="cls-4" d="M689.91,190c0,12.1-2.49,24.42-7.74,36.21l-234.14,524.18c-20.02,44.92-72.69,65.06-117.57,45-23.93-10.68-40.87-30.71-48.35-53.82,6.85,16.26,19.69,30.07,37.07,37.85,36.4,16.26,79.09-.07,95.35-36.47l239.54-536.31c4.24-9.57,6.29-19.58,6.29-29.4,0-27.62-15.93-54-42.8-65.99-18.46-8.26-38.52-8.11-55.98-1.23,22.93-11.24,50.47-12.62,75.59-1.41,33.09,14.78,52.74,47.3,52.74,81.4Z"/>
      <path class="cls-2" d="M617.56,111.25c-18.46-8.26-38.52-8.11-55.98-1.23-.11.04-.19.07-.3.15-16.82,6.7-31.11,19.73-39.08,37.59l-2.61,5.84-234.4,524.85-2.49,5.58c-4.28,9.57-6.29,19.58-6.29,29.4s1.97,19.28,5.69,28.14c6.85,16.26,19.69,30.07,37.07,37.85,36.4,16.26,79.09-.07,95.35-36.47l239.54-536.31c4.24-9.57,6.29-19.58,6.29-29.4,0-27.62-15.93-54-42.8-65.99ZM553.84,239.95l-190.04,425.48c-4.02,9.08-14.63,13.14-23.71,9.08-6.66-2.98-10.61-9.53-10.61-16.38,0-2.46.48-4.95,1.56-7.33l190-425.48c4.06-9.04,14.66-13.1,23.71-9.08,6.66,2.98,10.64,9.57,10.64,16.41,0,2.46-.48,4.91-1.56,7.29Z"/>
      <path class="cls-3" d="M555.41,232.65c0,2.46-.48,4.91-1.56,7.29l-190.04,425.48c-4.02,9.08-14.63,13.14-23.71,9.08-6.66-2.98-10.61-9.53-10.61-16.38,0-2.46.48-4.95,1.56-7.33l190-425.48c4.06-9.04,14.66-13.1,23.71-9.08,6.66,2.98,10.64,9.57,10.64,16.41Z"/>
    </g>
  </g>
</svg>